<svg aria-hidden="true" style="width:0;height:0;position:absolute;overflow:hidden" xmlns="http://www.w3.org/2000/svg"><defs><symbol id="icon-register_icon_219991" viewBox="0 0 32 32"><path d="M29.68 4.176h-1.6v-1.6c0-.4-.32-.72-.72-.72s-.72.32-.72.72v1.6h-1.6c-.4 0-.72.32-.72.72s.32.72.72.72h1.6v1.6c0 .4.32.72.72.72s.72-.32.72-.72V5.6h1.6c.4 0 .72-.32.72-.72s-.32-.72-.72-.72v.016zM23.008 16a5.37 5.37 0 0 0 .919-7.547l.009.012a5.35 5.35 0 0 0-4.123-2.064h-.005a5.18 5.18 0 0 0-3.536 1.392c-1.696-3.152-5.616-4.328-8.768-2.632s-4.328 5.616-2.632 8.76a6.51 6.51 0 0 0 2.192 2.376c-3.168.928-5.464 3.584-5.464 6.72v6.4c0 .4.32.72.72.72h16.704c.4 0 .72-.32.72-.72v-1.296h6.832c.4 0 .72-.32.72-.72v-5.56a6.236 6.236 0 0 0-4.244-5.827l-.044-.013zm-3.2-8.2.078-.001a3.921 3.921 0 0 1 3.921 3.837v.004l.001.078a3.921 3.921 0 0 1-3.837 3.921h-.004a3.92 3.92 0 0 1-3.48-1.968l.04-.112c.064-.136.12-.272.176-.408s.104-.32.152-.48.04-.128.056-.2a6.056 6.056 0 0 0 .208-1.56c0-.344 0-.672-.048-1.008a5.232 5.232 0 0 0-.137-.653l.009.037v-.088a3.767 3.767 0 0 1 2.904-1.4h-.04zm-4.28 9a8.193 8.193 0 0 0-1.28-.472 6.32 6.32 0 0 0 1.431-1.3l.009-.012c.312.408.688.76 1.112 1.056a5.233 5.233 0 0 0-1.192.744l-.08-.016zM5.6 10.912c-.008-2.776 2.248-5.032 5.024-5.04a5.03 5.03 0 0 1 4.768 3.4c.192.528.288 1.08.288 1.64a5.167 5.167 0 0 1-.272 1.6c-.632 1.872-2.448 3.424-4.496 3.424h-.592a5.044 5.044 0 0 1-4.72-5.024zm12.704 17.816H3.04v-5.712c0-1.168.432-2.304 1.168-3.208.776-.952 1.848-1.64 3.016-2.024.712-.232 1.464-.328 2.208-.36.768-.032 1.56-.08 2.328-.016.4.032.8.112 1.192.192.416.088.824.192 1.224.312.2.056.392.128.592.192.576.2 1.088.496 1.576.864.304.232.528.504.792.768.216.216.384.536.512.808.208.424.304.888.408 1.344.176.792.256 1.592.256 2.408v4.464l-.008-.032zm7.552-2.048h-6.112v-3.96a7.265 7.265 0 0 0-1.176-3.52c-.04-.056-.088-.112-.128-.176a7.79 7.79 0 0 0-.462-.567l.006.007-.04-.048c-.28-.304-.6-.584-.944-.816a3.64 3.64 0 0 1 2.097-.519h-.009 1.776l.099-.001a4.894 4.894 0 0 1 4.892 4.754V26.681z"/></symbol><symbol id="icon-film" viewBox="0 0 32 32"><path fill="none" stroke="#fff" style="stroke:var(--color1,#fff)" stroke-linejoin="round" stroke-linecap="round" stroke-width="2.667" d="M26.427 2.667H5.574a2.907 2.907 0 0 0-2.907 2.907v20.853a2.907 2.907 0 0 0 2.907 2.907h20.853a2.907 2.907 0 0 0 2.907-2.907V5.574a2.907 2.907 0 0 0-2.907-2.907zM9.333 2.667v26.667M22.667 2.667v26.667M2.667 16h26.667M2.667 9.333h6.667M2.667 22.667h6.667M22.667 22.667h6.667M22.667 9.333h6.667"/></symbol><symbol id="icon-search-2" viewBox="0 0 32 32"><path fill="none" stroke="#fff" style="stroke:var(--color1,#fff)" stroke-linejoin="round" stroke-linecap="round" stroke-width="2.667" d="M14.667 25.333c5.891 0 10.667-4.776 10.667-10.667S20.558 3.999 14.667 3.999 4 8.775 4 14.666s4.776 10.667 10.667 10.667zM28 28.001l-5.8-5.8"/></symbol></defs></svg>