<svg aria-hidden="true" style="position: absolute; width: 0; height: 0; overflow: hidden;" version="1.1" xmlns="http://www.w3.org/2000/svg" xmlns:xlink="http://www.w3.org/1999/xlink">
<defs>
<symbol id="icon-register_icon_219991" viewBox="0 0 32 32">
<path d="M29.68 4.176h-1.6v-1.6c0-0.4-0.32-0.72-0.72-0.72s-0.72 0.32-0.72 0.72v1.6h-1.6c-0.4 0-0.72 0.32-0.72 0.72s0.32 0.72 0.72 0.72h1.6v1.6c0 0.4 0.32 0.72 0.72 0.72s0.72-0.32 0.72-0.72v-1.616h1.6c0.4 0 0.72-0.32 0.72-0.72s-0.32-0.72-0.72-0.72v0.016zM23.008 16c1.261-0.992 2.064-2.519 2.064-4.232 0-1.251-0.428-2.402-1.145-3.315l0.009 0.012c-0.969-1.237-2.453-2.033-4.123-2.064l-0.005-0c-1.312 0-2.576 0.496-3.536 1.392-1.696-3.152-5.616-4.328-8.768-2.632s-4.328 5.616-2.632 8.76c0.52 0.96 1.272 1.784 2.192 2.376-3.168 0.928-5.464 3.584-5.464 6.72v6.4c0 0.4 0.32 0.72 0.72 0.72h16.704c0.4 0 0.72-0.32 0.72-0.72v-1.296h6.832c0.4 0 0.72-0.32 0.72-0.72v-5.56c-0.037-2.714-1.802-5.006-4.244-5.827l-0.044-0.013zM19.808 7.8c0.023-0 0.051-0.001 0.078-0.001 2.138 0 3.876 1.71 3.921 3.837l0 0.004c0 0.023 0.001 0.051 0.001 0.078 0 2.138-1.71 3.876-3.837 3.921l-0.004 0c-1.432 0.032-2.768-0.728-3.48-1.968l0.040-0.112c0.064-0.136 0.12-0.272 0.176-0.408s0.104-0.32 0.152-0.48 0.040-0.128 0.056-0.2c0.136-0.512 0.208-1.032 0.208-1.56 0-0.344 0-0.672-0.048-1.008-0.036-0.241-0.080-0.45-0.137-0.653l0.009 0.037v-0.088c0.712-0.88 1.776-1.392 2.904-1.4h-0.040zM15.528 16.8c-0.416-0.192-0.84-0.352-1.28-0.472 0.555-0.369 1.030-0.803 1.431-1.3l0.009-0.012c0.312 0.408 0.688 0.76 1.112 1.056-0.432 0.192-0.832 0.448-1.192 0.744l-0.080-0.016zM5.6 10.912c-0.008-2.776 2.248-5.032 5.024-5.040 2.152 0 4.072 1.36 4.768 3.4 0.192 0.528 0.288 1.080 0.288 1.64-0.008 0.544-0.096 1.088-0.272 1.6-0.632 1.872-2.448 3.424-4.496 3.424h-0.592c-2.64-0.173-4.717-2.356-4.72-5.024v-0zM18.304 28.728h-15.264v-5.712c0-1.168 0.432-2.304 1.168-3.208 0.776-0.952 1.848-1.64 3.016-2.024 0.712-0.232 1.464-0.328 2.208-0.36 0.768-0.032 1.56-0.080 2.328-0.016 0.4 0.032 0.8 0.112 1.192 0.192 0.416 0.088 0.824 0.192 1.224 0.312 0.2 0.056 0.392 0.128 0.592 0.192 0.576 0.2 1.088 0.496 1.576 0.864 0.304 0.232 0.528 0.504 0.792 0.768 0.216 0.216 0.384 0.536 0.512 0.808 0.208 0.424 0.304 0.888 0.408 1.344 0.176 0.792 0.256 1.592 0.256 2.408v4.464l-0.008-0.032zM25.856 26.68h-6.112v-3.96c-0.080-1.256-0.488-2.472-1.176-3.52-0.040-0.056-0.088-0.112-0.128-0.176-0.156-0.21-0.305-0.392-0.462-0.567l0.006 0.007-0.040-0.048c-0.28-0.304-0.6-0.584-0.944-0.816 0.541-0.33 1.195-0.525 1.894-0.525 0.068 0 0.136 0.002 0.203 0.006l-0.009-0h1.776c0.030-0.001 0.064-0.001 0.099-0.001 2.656 0 4.818 2.116 4.892 4.754l0 0.007v4.84z"></path>
</symbol>
<symbol id="icon-film" viewBox="0 0 32 32">
<path fill="none" stroke="#fff" style="stroke: var(--color1, #fff)" stroke-linejoin="round" stroke-linecap="round" stroke-miterlimit="4" stroke-width="2.6667" d="M26.427 2.667h-20.853c-1.605 0-2.907 1.301-2.907 2.907v20.853c0 1.605 1.301 2.907 2.907 2.907h20.853c1.605 0 2.907-1.301 2.907-2.907v-20.853c0-1.605-1.301-2.907-2.907-2.907z"></path>
<path fill="none" stroke="#fff" style="stroke: var(--color1, #fff)" stroke-linejoin="round" stroke-linecap="round" stroke-miterlimit="4" stroke-width="2.6667" d="M9.333 2.667v26.667"></path>
<path fill="none" stroke="#fff" style="stroke: var(--color1, #fff)" stroke-linejoin="round" stroke-linecap="round" stroke-miterlimit="4" stroke-width="2.6667" d="M22.667 2.667v26.667"></path>
<path fill="none" stroke="#fff" style="stroke: var(--color1, #fff)" stroke-linejoin="round" stroke-linecap="round" stroke-miterlimit="4" stroke-width="2.6667" d="M2.667 16h26.667"></path>
<path fill="none" stroke="#fff" style="stroke: var(--color1, #fff)" stroke-linejoin="round" stroke-linecap="round" stroke-miterlimit="4" stroke-width="2.6667" d="M2.667 9.333h6.667"></path>
<path fill="none" stroke="#fff" style="stroke: var(--color1, #fff)" stroke-linejoin="round" stroke-linecap="round" stroke-miterlimit="4" stroke-width="2.6667" d="M2.667 22.667h6.667"></path>
<path fill="none" stroke="#fff" style="stroke: var(--color1, #fff)" stroke-linejoin="round" stroke-linecap="round" stroke-miterlimit="4" stroke-width="2.6667" d="M22.667 22.667h6.667"></path>
<path fill="none" stroke="#fff" style="stroke: var(--color1, #fff)" stroke-linejoin="round" stroke-linecap="round" stroke-miterlimit="4" stroke-width="2.6667" d="M22.667 9.333h6.667"></path>
</symbol>
<symbol id="icon-search-2" viewBox="0 0 32 32">
<path fill="none" stroke="#fff" style="stroke: var(--color1, #fff)" stroke-linejoin="round" stroke-linecap="round" stroke-miterlimit="4" stroke-width="2.6667" d="M14.667 25.333c5.891 0 10.667-4.776 10.667-10.667s-4.776-10.667-10.667-10.667c-5.891 0-10.667 4.776-10.667 10.667s4.776 10.667 10.667 10.667z"></path>
<path fill="none" stroke="#fff" style="stroke: var(--color1, #fff)" stroke-linejoin="round" stroke-linecap="round" stroke-miterlimit="4" stroke-width="2.6667" d="M28 28.001l-5.8-5.8"></path>
</symbol>
</defs>
</svg>
